<svg width="39" height="39" viewBox="0 0 39 39" fill="none" xmlns="http://www.w3.org/2000/svg">
<g clip-path="url(#clip0_433_2)">
<path d="M14.625 7.3125C14.625 9.2519 13.8546 11.1119 12.4832 12.4832C11.1119 13.8546 9.2519 14.625 7.3125 14.625C5.3731 14.625 3.51314 13.8546 2.14178 12.4832C0.770422 11.1119 0 9.2519 0 7.3125C0 5.3731 0.770422 3.51314 2.14178 2.14178C3.51314 0.770422 5.3731 0 7.3125 0C9.2519 0 11.1119 0.770422 12.4832 2.14178C13.8546 3.51314 14.625 5.3731 14.625 7.3125ZM2.4375 7.3125C2.4375 8.60543 2.95111 9.84541 3.86535 10.7596C4.77959 11.6739 6.01957 12.1875 7.3125 12.1875C8.60543 12.1875 9.84541 11.6739 10.7596 10.7596C11.6739 9.84541 12.1875 8.60543 12.1875 7.3125C12.1875 6.01957 11.6739 4.77959 10.7596 3.86535C9.84541 2.95111 8.60543 2.4375 7.3125 2.4375C6.01957 2.4375 4.77959 2.95111 3.86535 3.86535C2.95111 4.77959 2.4375 6.01957 2.4375 7.3125Z" fill="#FF8D30"/>
<path d="M21.9375 14.625H23.1562C24.3387 14.6249 25.4808 15.0545 26.37 15.8338C27.2593 16.6132 27.8349 17.6892 27.9898 18.8614L35.5704 15.4927C35.9415 15.3274 36.348 15.2574 36.753 15.2892C37.1579 15.3209 37.5486 15.4534 37.8893 15.6745C38.2301 15.8956 38.5102 16.1984 38.7042 16.5553C38.8981 16.9122 38.9998 17.312 39 17.7182V35.9068C38.9996 36.3127 38.8979 36.7121 38.7041 37.0687C38.5102 37.4254 38.2304 37.7279 37.89 37.949C37.5496 38.17 37.1593 38.3026 36.7547 38.3346C36.35 38.3666 35.9438 38.297 35.5729 38.1323L27.9898 34.7636C27.8349 35.9358 27.2593 37.0118 26.37 37.7912C25.4808 38.5705 24.3387 39.0001 23.1562 39H4.875C3.58207 39 2.34209 38.4864 1.42785 37.5721C0.513615 36.6579 0 35.4179 0 34.125V19.5C0 18.2071 0.513615 16.9671 1.42785 16.0529C2.34209 15.1386 3.58207 14.625 4.875 14.625H21.9375ZM36.5625 35.9044V17.7206L28.0312 21.5109V32.1141L36.5625 35.9044ZM2.4375 19.5V34.125C2.4375 34.7715 2.69431 35.3915 3.15143 35.8486C3.60855 36.3057 4.22853 36.5625 4.875 36.5625H23.1562C23.8027 36.5625 24.4227 36.3057 24.8798 35.8486C25.3369 35.3915 25.5938 34.7715 25.5938 34.125V19.5C25.5938 18.8535 25.3369 18.2335 24.8798 17.7764C24.4227 17.3193 23.8027 17.0625 23.1562 17.0625H4.875C4.22853 17.0625 3.60855 17.3193 3.15143 17.7764C2.69431 18.2335 2.4375 18.8535 2.4375 19.5Z" fill="#FF8D30"/>
<path d="M21.9375 14.625C23.8769 14.625 25.7369 13.8546 27.1082 12.4832C28.4796 11.1119 29.25 9.2519 29.25 7.3125C29.25 5.3731 28.4796 3.51314 27.1082 2.14178C25.7369 0.770422 23.8769 0 21.9375 0C19.9981 0 18.1381 0.770422 16.7668 2.14178C15.3954 3.51314 14.625 5.3731 14.625 7.3125C14.625 9.2519 15.3954 11.1119 16.7668 12.4832C18.1381 13.8546 19.9981 14.625 21.9375 14.625ZM17.0625 7.3125C17.0625 6.01957 17.5761 4.77959 18.4904 3.86535C19.4046 2.95111 20.6446 2.4375 21.9375 2.4375C23.2304 2.4375 24.4704 2.95111 25.3846 3.86535C26.2989 4.77959 26.8125 6.01957 26.8125 7.3125C26.8125 8.60543 26.2989 9.84541 25.3846 10.7596C24.4704 11.6739 23.2304 12.1875 21.9375 12.1875C20.6446 12.1875 19.4046 11.6739 18.4904 10.7596C17.5761 9.84541 17.0625 8.60543 17.0625 7.3125Z" fill="#FF8D30"/>
</g>
<defs>
<clipPath id="clip0_433_2">
<rect width="39" height="39" fill="white"/>
</clipPath>
</defs>
</svg>
